<svg width="47" height="46" viewBox="0 0 47 46" fill="none" xmlns="http://www.w3.org/2000/svg">
<path d="M23.5 0C10.85 0 0.5 10.35 0.5 23C0.5 35.65 10.85 46 23.5 46C36.15 46 46.5 35.65 46.5 23C46.5 10.35 36.15 0 23.5 0ZM34.77 14.03L30.86 32.89C30.63 34.27 29.71 34.5 28.79 33.81L22.81 29.21C21.43 30.59 20.05 31.74 19.82 32.2C19.36 32.43 19.13 32.89 18.67 32.89C17.98 32.89 17.98 32.43 17.75 31.97L15.68 25.07L9.47 23C8.09 22.54 8.09 21.62 9.7 20.93L33.16 11.96C34.08 11.73 35.23 12.19 34.77 14.03ZM29.25 16.1L16.14 24.38L18.21 31.28L18.67 26.68L29.94 16.56C30.63 15.87 30.17 15.87 29.25 16.1Z" fill="white"/>
</svg>
