<svg width="46" height="46" viewBox="0 0 46 46" fill="none" xmlns="http://www.w3.org/2000/svg">
<path d="M37.1362 32.8201H33.7941C32.5287 32.8201 32.1376 31.8139 29.8645 29.5102C27.8844 27.5929 27.0086 27.3353 26.5224 27.3353C25.8398 27.3353 25.645 27.5301 25.645 28.4718V31.4903C25.645 32.3032 25.3858 32.7894 23.2431 32.7894C18.9209 32.4995 15.206 30.1421 13.0495 26.7064L13.0173 26.6527C10.5142 23.5437 8.669 19.7967 7.75639 15.6984L7.72265 15.5189C7.72265 15.0327 7.91744 14.5772 8.85919 14.5772H12.2013C13.0449 14.5772 13.3701 14.9668 13.6968 15.8748C15.3502 20.6479 18.111 24.8352 19.2476 24.8352C19.6694 24.8352 19.8642 24.6404 19.8642 23.5698V18.6325C19.7338 16.3594 18.5328 16.1662 18.5328 15.3548C18.5466 14.9207 18.9025 14.5741 19.3381 14.5741C19.3519 14.5741 19.3641 14.5741 19.3779 14.5756H19.3764H24.6358C25.3505 14.5756 25.6097 14.9652 25.6097 15.8088V22.4655C25.6097 23.1787 25.9349 23.4394 26.1297 23.4394C26.5515 23.4394 26.9104 23.1787 27.688 22.4011C29.3047 20.4271 30.6866 18.1693 31.7403 15.7352L31.8109 15.5511C32.0333 14.9944 32.567 14.6078 33.1913 14.6078C33.2204 14.6078 33.248 14.6094 33.2772 14.6109H33.2726H36.6147C37.6209 14.6109 37.8494 15.1278 37.6209 15.8441C36.2803 18.7966 34.7742 21.3335 33.0287 23.6833L33.1085 23.5698C32.7526 24.1542 32.6223 24.4134 33.1085 25.0653C33.4643 25.5515 34.6346 26.5576 35.4138 27.4672C36.5411 28.5822 37.4859 29.8798 38.1991 31.3124L38.2375 31.3968C38.5626 32.3354 38.0749 32.8232 37.1331 32.8232L37.1362 32.8201ZM30.0608 0H15.9392C3.05072 0 0 3.05072 0 15.9392V30.0608C0 42.9493 3.05072 46 15.9392 46H30.0608C42.9493 46 46 42.9493 46 30.0608V15.9392C46 3.05072 42.9155 0 30.0608 0Z" fill="white"/>
</svg>
