<svg width="46" height="46" viewBox="0 0 46 46" fill="none" xmlns="http://www.w3.org/2000/svg">
<path d="M23 0C10.35 0 0 10.35 0 23C0 35.65 10.35 46 23 46C35.65 46 46 35.65 46 23C46 10.35 35.65 0 23 0ZM34.27 14.03L30.36 32.89C30.13 34.27 29.21 34.5 28.29 33.81L22.31 29.21C20.93 30.59 19.55 31.74 19.32 32.2C18.86 32.43 18.63 32.89 18.17 32.89C17.48 32.89 17.48 32.43 17.25 31.97L15.18 25.07L8.97 23C7.59 22.54 7.59 21.62 9.2 20.93L32.66 11.96C33.58 11.73 34.73 12.19 34.27 14.03ZM28.75 16.1L15.64 24.38L17.71 31.28L18.17 26.68L29.44 16.56C30.13 15.87 29.67 15.87 28.75 16.1Z" fill="white"/>
</svg>
