<svg width="46" height="46" viewBox="0 0 46 46" fill="none" xmlns="http://www.w3.org/2000/svg">
<g clip-path="url(#clip0_177_5)">
<path d="M34.0376 26.4323C33.948 26.3892 30.5945 24.7379 29.9986 24.5234C29.7553 24.436 29.4947 24.3508 29.2175 24.3508C28.7646 24.3508 28.3842 24.5764 28.0879 25.0197C27.7529 25.5176 26.7388 26.703 26.4255 27.0571C26.3846 27.1039 26.3287 27.1597 26.2953 27.1597C26.2653 27.1597 25.7463 26.946 25.5891 26.8778C21.9917 25.3151 19.2612 21.5573 18.8867 20.9236C18.8333 20.8325 18.831 20.7911 18.8306 20.7911C18.8437 20.7429 18.9647 20.6216 19.0271 20.559C19.2098 20.3783 19.4077 20.1401 19.5991 19.9097C19.6898 19.8005 19.7806 19.6912 19.8698 19.5881C20.1476 19.2649 20.2712 19.014 20.4146 18.7234L20.4897 18.5724C20.8398 17.8769 20.5408 17.2899 20.4442 17.1004C20.3649 16.9418 18.9489 13.5243 18.7983 13.1653C18.4363 12.2989 17.9579 11.8955 17.2932 11.8955C17.2315 11.8955 17.2932 11.8955 17.0345 11.9064C16.7195 11.9197 15.0042 12.1455 14.2458 12.6236C13.4416 13.1306 12.081 14.7469 12.081 17.5894C12.081 20.1476 13.7044 22.563 14.4014 23.4817C14.4188 23.5048 14.4506 23.5519 14.4967 23.6194C17.1661 27.5177 20.4938 30.4068 23.8671 31.7544C27.1148 33.0516 28.6526 33.2016 29.5269 33.2016H29.5271C29.8945 33.2016 30.1885 33.1727 30.448 33.1472L30.6126 33.1315C31.7345 33.0321 34.2 31.7545 34.7608 30.196C35.2025 28.9685 35.319 27.6274 35.0251 27.1406C34.8238 26.8097 34.4769 26.6431 34.0376 26.4323Z" fill="white"/>
<path d="M23.4083 0C10.9501 0 0.814524 10.0594 0.814524 22.424C0.814524 26.4231 1.88477 30.3377 3.9122 33.7638L0.0316277 45.2108C-0.040658 45.4243 0.0131082 45.6602 0.170972 45.8209C0.284926 45.9373 0.439504 46 0.597368 46C0.657855 46 0.71879 45.9909 0.778231 45.9719L12.7143 42.179C15.9806 43.9242 19.6723 44.8454 23.4084 44.8454C35.8655 44.8455 46 34.7872 46 22.424C46 10.0594 35.8655 0 23.4083 0ZM23.4083 40.1744C19.8927 40.1744 16.4877 39.1593 13.5607 37.2386C13.4623 37.174 13.348 37.1408 13.233 37.1408C13.1722 37.1408 13.1113 37.1501 13.052 37.1689L7.07276 39.0695L9.00297 33.3749C9.0654 33.1906 9.03418 32.9874 8.91918 32.8303C6.69028 29.7847 5.51205 26.1864 5.51205 22.424C5.51205 12.6351 13.5402 4.67109 23.4081 4.67109C33.2748 4.67109 41.3021 12.6351 41.3021 22.424C41.3023 32.2117 33.2751 40.1744 23.4083 40.1744Z" fill="white"/>
</g>
<defs>
<clipPath id="clip0_177_5">
<rect width="46" height="46" fill="white"/>
</clipPath>
</defs>
</svg>
